<svg xmlns="http://www.w3.org/2000/svg" width="1200" height="700" viewBox="0 0 1200 700" role="img" aria-labelledby="title desc">
  <title id="title">Wireframe del dashboard de Bitácora HCI</title>
  <desc id="desc">Estructura de baja fidelidad con barra lateral, cabecera, zona de carga y resumen de actividad.</desc>
  <rect width="1200" height="700" fill="#f7f8fa"/>
  <rect x="22" y="22" width="1156" height="656" rx="12" fill="#fff" stroke="#b6bdc8" stroke-width="2"/>
  <rect x="22" y="22" width="220" height="656" rx="12" fill="#e9edf2"/>
  <rect x="48" y="54" width="136" height="20" rx="4" fill="#b6bdc8"/>
  <rect x="48" y="106" width="166" height="52" rx="6" fill="#d5dbe3"/>
  <g fill="#aab2bd">
    <rect x="48" y="196" width="154" height="18" rx="4"/>
    <rect x="48" y="234" width="130" height="18" rx="4"/>
    <rect x="48" y="272" width="148" height="18" rx="4"/>
    <rect x="48" y="310" width="116" height="18" rx="4"/>
    <rect x="48" y="348" width="142" height="18" rx="4"/>
  </g>
  <rect x="48" y="594" width="166" height="42" rx="21" fill="#d9ff43" stroke="#a6c700"/>
  <rect x="264" y="22" width="914" height="74" fill="#fff" stroke="#d8dde5"/>
  <rect x="292" y="48" width="150" height="18" rx="4" fill="#aab2bd"/>
  <rect x="554" y="44" width="286" height="28" rx="14" fill="#eef1f4" stroke="#c4cbd5"/>
  <rect x="1034" y="43" width="54" height="30" rx="15" fill="#d5dbe3"/>
  <circle cx="1130" cy="58" r="15" fill="#d9ff43" stroke="#a6c700"/>
  <rect x="292" y="126" width="530" height="396" rx="10" fill="#fff" stroke="#b6bdc8" stroke-dasharray="8 8" stroke-width="2"/>
  <rect x="440" y="230" width="236" height="92" rx="8" fill="#f1f3f6" stroke="#b6bdc8"/>
  <path d="M492 274h132M492 292h86" stroke="#aab2bd" stroke-width="8" stroke-linecap="round"/>
  <rect x="452" y="350" width="216" height="22" rx="4" fill="#aab2bd"/>
  <rect x="420" y="392" width="280" height="16" rx="4" fill="#d5dbe3"/>
  <rect x="850" y="126" width="276" height="396" rx="10" fill="#f7f8fa" stroke="#c4cbd5"/>
  <rect x="882" y="160" width="152" height="18" rx="4" fill="#aab2bd"/>
  <g fill="#e3e7ec" stroke="#b6bdc8">
    <rect x="882" y="204" width="90" height="86" rx="8"/>
    <rect x="988" y="204" width="90" height="86" rx="8"/>
    <rect x="882" y="310" width="90" height="86" rx="8"/>
    <rect x="988" y="310" width="90" height="86" rx="8"/>
  </g>
  <rect x="292" y="552" width="834" height="80" rx="8" fill="#f1f3f6" stroke="#c4cbd5"/>
  <text x="44" y="660" font-family="Arial, sans-serif" font-size="15" fill="#566170">Wireframe 01 · Resumen y carga rápida</text>
</svg>
